<svg width="16" height="16" viewBox="0 0 16 16" fill="none" xmlns="http://www.w3.org/2000/svg">
<path d="M11.6465 3.64648C11.8417 3.45121 12.1582 3.45121 12.3535 3.64648C12.5488 3.84174 12.5488 4.15825 12.3535 4.35351L4.35351 12.3535C4.15825 12.5488 3.84174 12.5488 3.64648 12.3535C3.45121 12.1582 3.45121 11.8417 3.64648 11.6465L11.6465 3.64648Z" fill="white"/>
<path d="M3.64648 3.64648C3.84174 3.45121 4.15825 3.45121 4.35351 3.64648L12.3535 11.6465C12.5488 11.8417 12.5488 12.1582 12.3535 12.3535C12.1582 12.5488 11.8417 12.5488 11.6465 12.3535L3.64648 4.35351C3.45121 4.15825 3.45121 3.84174 3.64648 3.64648Z" fill="white"/>
</svg>
