<svg width="12" height="17" viewBox="0 0 12 17" fill="none" xmlns="http://www.w3.org/2000/svg">
<path d="M2.86689 16.2001C4.33967 16.2001 5.53359 15.0062 5.53359 13.5334V10.8667H2.86689C1.39412 10.8667 0.200195 12.0606 0.200195 13.5334C0.200195 15.0062 1.39412 16.2001 2.86689 16.2001Z" fill="white"/>
<path d="M5.33398 11.0669H2.86719C1.50487 11.0669 0.400391 12.1714 0.400391 13.5337C0.400551 14.8959 1.50497 16.0005 2.86719 16.0005C4.22927 16.0003 5.33382 14.8958 5.33398 13.5337V11.0669ZM5.7334 13.5337C5.73324 15.1167 4.45019 16.3997 2.86719 16.3999C1.28405 16.3999 0.000160139 15.1168 0 13.5337C0 11.9505 1.28395 10.6665 2.86719 10.6665H5.7334V13.5337Z" fill="#171717"/>
<path d="M10.8671 8.20039C10.8671 6.72761 9.67316 5.53369 8.20039 5.53369C6.72761 5.53369 5.53369 6.72761 5.53369 8.20039C5.53369 9.67316 6.72761 10.8671 8.20039 10.8671C9.67316 10.8671 10.8671 9.67316 10.8671 8.20039Z" fill="white"/>
<path d="M10.6675 8.20068C10.6675 6.83846 9.56287 5.73405 8.20068 5.73389C6.83836 5.73389 5.73389 6.83836 5.73389 8.20068C5.73405 9.56287 6.83846 10.6675 8.20068 10.6675C9.56277 10.6673 10.6673 9.56277 10.6675 8.20068ZM11.0669 8.20068C11.0667 9.78368 9.78368 11.0667 8.20068 11.0669C6.61755 11.0669 5.33366 9.78378 5.3335 8.20068C5.3335 6.61745 6.61745 5.3335 8.20068 5.3335C9.78378 5.33366 11.0669 6.61755 11.0669 8.20068Z" fill="#171717"/>
<path d="M0.200195 2.86689C0.200195 4.33967 1.39412 5.53359 2.86689 5.53359H5.53359V0.200195H2.86689C1.39412 0.200195 0.200195 1.39412 0.200195 2.86689Z" fill="white"/>
<path d="M5.7334 0V5.7334H2.86719C1.28405 5.7334 0.000160139 4.45028 0 2.86719C0 1.28395 1.28395 0 2.86719 0H5.7334ZM0.400391 2.86719C0.400551 4.22937 1.50497 5.33398 2.86719 5.33398H5.33398V0.400391H2.86719C1.50487 0.400391 0.400391 1.50487 0.400391 2.86719Z" fill="#171717"/>
<path d="M0.200195 8.20039C0.200195 9.67316 1.39412 10.8671 2.86689 10.8671H5.53359V5.53369H2.86689C1.39412 5.53369 0.200195 6.72761 0.200195 8.20039Z" fill="white"/>
<path d="M5.7334 5.3335V11.0669H2.86719C1.28405 11.0669 0.000160139 9.78378 0 8.20068C0 6.61745 1.28395 5.3335 2.86719 5.3335H5.7334ZM0.400391 8.20068C0.400551 9.56287 1.50497 10.6675 2.86719 10.6675H5.33398V5.73389H2.86719C1.50487 5.73389 0.400391 6.83836 0.400391 8.20068Z" fill="#171717"/>
<path d="M10.8667 2.86689C10.8667 4.33967 9.67278 5.53359 8.2 5.53359H5.53331V0.200195H8.2C9.67278 0.200195 10.8667 1.39412 10.8667 2.86689Z" fill="white"/>
<path d="M5.3335 0V5.7334H8.19971C9.78284 5.7334 11.0667 4.45028 11.0669 2.86719C11.0669 1.28395 9.78294 0 8.19971 0H5.3335ZM10.6665 2.86719C10.6663 4.22937 9.56193 5.33398 8.19971 5.33398H5.73291V0.400391H8.19971C9.56203 0.400391 10.6665 1.50487 10.6665 2.86719Z" fill="#171717"/>
</svg>
