<svg width="16" height="16" viewBox="0 0 16 16" xmlns="http://www.w3.org/2000/svg">
<path d="M14.3977 4.24479C14.6306 4.09646 14.9401 4.16497 15.0885 4.39778C15.2368 4.63065 15.1683 4.94016 14.9355 5.08854L8.94133 8.90625C8.93557 8.90992 8.92965 8.91389 8.92375 8.91732C8.64416 9.07968 8.32648 9.16467 8.00317 9.16471C7.67974 9.16471 7.36163 9.07976 7.08195 8.91732C7.07612 8.91393 7.07071 8.90986 7.06502 8.90625L1.06502 5.08854C0.832102 4.94032 0.763261 4.63139 0.911377 4.39844C1.05959 4.16551 1.36853 4.09667 1.60148 4.24479L7.5839 8.05208C7.71103 8.12592 7.85616 8.16471 8.00317 8.16471C8.15005 8.16467 8.29412 8.12582 8.42114 8.05208L14.3977 4.24479Z" />
<path d="M14.1666 4C14.1666 3.53976 13.7935 3.16666 13.3333 3.16666H2.66659C2.20635 3.16666 1.83325 3.53976 1.83325 4V12C1.83325 12.4602 2.20635 12.8333 2.66659 12.8333H13.3333C13.7935 12.8333 14.1666 12.4602 14.1666 12V4ZM15.1666 12C15.1666 13.0125 14.3458 13.8333 13.3333 13.8333H2.66659C1.65406 13.8333 0.833252 13.0125 0.833252 12V4C0.833252 2.98748 1.65406 2.16666 2.66659 2.16666H13.3333C14.3458 2.16666 15.1666 2.98748 15.1666 4V12Z" />
</svg>
