<svg width="16" height="16" viewBox="0 0 16 16" xmlns="http://www.w3.org/2000/svg">
<g clip-path="url(#clip0_5174_992)">
<path d="M5.49992 2.66667C5.49992 2.44566 5.41206 2.23376 5.25578 2.07748C5.0995 1.9212 4.8876 1.83334 4.66659 1.83334H2.66659C2.44557 1.83334 2.23367 1.9212 2.07739 2.07748C1.92111 2.23376 1.83325 2.44566 1.83325 2.66667C1.83325 5.71666 3.04507 8.64151 5.20174 10.7982C7.35841 12.9548 10.2833 14.1667 13.3333 14.1667C13.5543 14.1667 13.7662 14.0788 13.9224 13.9225C14.0787 13.7662 14.1666 13.5543 14.1666 13.3333V11.3333C14.1666 11.1123 14.0787 10.9004 13.9224 10.7441C13.7662 10.5879 13.5543 10.5 13.3333 10.5H11.3333C11.204 10.5 11.0765 10.5301 10.9609 10.5879C10.8451 10.6457 10.7442 10.7298 10.6666 10.8333L10.664 10.8366L10.4277 11.1465C10.2671 11.3573 10.0395 11.5074 9.78247 11.5716C9.52523 11.6359 9.25324 11.6107 9.01229 11.5C9.0085 11.4983 9.00496 11.496 9.00122 11.4941C7.0504 10.5367 5.47158 8.95999 4.51164 7.01042L4.51034 7.00847C4.39229 6.76631 4.36171 6.49067 4.42375 6.22852C4.48584 5.96632 4.63669 5.7332 4.85083 5.56966L4.85474 5.56706L5.16659 5.33334C5.27008 5.25571 5.35417 5.15478 5.41203 5.03906C5.4698 4.92342 5.49992 4.79594 5.49992 4.66667V2.66667ZM6.49992 4.66667C6.49992 4.95119 6.43376 5.23183 6.30656 5.48633C6.17929 5.74086 5.99449 5.96271 5.76685 6.13347L5.4576 6.36393L5.45825 6.36459C5.42765 6.38795 5.40593 6.42153 5.39705 6.45899C5.38838 6.49577 5.39263 6.53424 5.40877 6.56836L5.57674 6.89258C6.44792 8.4917 7.79381 9.7851 9.43286 10.5918C9.46653 10.6065 9.50391 10.6098 9.53963 10.6009C9.57638 10.5917 9.60913 10.5705 9.63208 10.5404L9.63273 10.5397L9.86906 10.2298C10.0395 10.0037 10.2603 9.82 10.5136 9.69336C10.7681 9.56616 11.0487 9.5 11.3333 9.5H13.3333C13.8195 9.5 14.2857 9.69329 14.6295 10.0371C14.9733 10.3809 15.1666 10.8471 15.1666 11.3333V13.3333C15.1666 13.8196 14.9733 14.2857 14.6295 14.6296C14.2857 14.9734 13.8195 15.1667 13.3333 15.1667C10.018 15.1667 6.83891 13.8494 4.49471 11.5052C2.15051 9.16101 0.833252 5.98187 0.833252 2.66667C0.833252 2.18044 1.02654 1.71426 1.37036 1.37045C1.71418 1.02663 2.18035 0.833336 2.66659 0.833336H4.66659C5.15282 0.833336 5.61899 1.02663 5.96281 1.37045C6.30663 1.71426 6.49992 2.18044 6.49992 2.66667V4.66667Z" />
</g>
<defs>
<clipPath id="clip0_5174_992">
<rect width="16" height="16" fill="white"/>
</clipPath>
</defs>
</svg>
