<svg width="16" height="16" viewBox="0 0 16 16" fill="none" xmlns="http://www.w3.org/2000/svg">
<g clip-path="url(#clip0_5176_997)">
<path d="M14.1666 8C14.1666 4.59425 11.4057 1.83334 7.99992 1.83334C4.59416 1.83334 1.83325 4.59425 1.83325 8C1.83325 11.4058 4.59416 14.1667 7.99992 14.1667C11.4057 14.1667 14.1666 11.4058 14.1666 8ZM15.1666 8C15.1666 11.958 11.958 15.1667 7.99992 15.1667C4.04188 15.1667 0.833252 11.958 0.833252 8C0.833252 4.04196 4.04188 0.833336 7.99992 0.833336C11.958 0.833336 15.1666 4.04196 15.1666 8Z" fill="#F8FAFC"/>
<path d="M10.1666 8C10.1666 5.82755 9.39505 3.73213 7.99992 2.08203C6.60479 3.73213 5.83325 5.82755 5.83325 8C5.83325 10.1723 6.60499 12.2673 7.99992 13.9173C9.39484 12.2673 10.1666 10.1723 10.1666 8ZM11.1666 8C11.1666 10.6106 10.1623 13.1213 8.3619 15.0117C8.26754 15.1107 8.13668 15.1667 7.99992 15.1667C7.86315 15.1667 7.7323 15.1107 7.63794 15.0117C5.83755 13.1213 4.83325 10.6106 4.83325 8C4.83325 5.38944 5.83755 2.87869 7.63794 0.988284L7.67505 0.953128C7.76516 0.87613 7.88028 0.833336 7.99992 0.833336C8.13668 0.833336 8.26754 0.889295 8.3619 0.988284C10.1623 2.87869 11.1666 5.38944 11.1666 8Z" fill="#F8FAFC"/>
<path d="M14.6666 7.5C14.9427 7.5 15.1666 7.72386 15.1666 8C15.1666 8.27614 14.9427 8.5 14.6666 8.5H1.33325C1.05711 8.5 0.833252 8.27614 0.833252 8C0.833252 7.72386 1.05711 7.5 1.33325 7.5H14.6666Z" fill="#F8FAFC"/>
</g>
<defs>
<clipPath id="clip0_5176_997">
<rect width="16" height="16" fill="white"/>
</clipPath>
</defs>
</svg>
